# xmcd
#
# Track frame offsets: 
#        150
#        18485
#        31978
#        46676
#        68989
#        92124
#        102620
#        114493
#        124998
#        135728
#        146797
#        157056
#        170508
#        179984
#        199088
#        213082
#
# Disc length: 3058 seconds
#
# Revision: 1
# Processed by: cddbd v1.5.2PL0 Copyright (c) Steve Scherf et al.
# Submitted via: ExactAudioCopyFreeDBPlugin 1.0
#
DISCID=f30bf010
DTITLE=Various Artist - Back in New Orleans [Rhino]
DYEAR=1974
DGENRE=
TTITLE0=The Meters - Hey Pocky Way [Back in N.O.]
TTITLE1=Professor Longhair - Bald Head [1979 ver.]
TTITLE2=Earl King - Street Parade
TTITLE3=Dr. John - Where Ya at Mule
TTITLE4=Allen Toussaint - Bright Mississippi
TTITLE5=Huey Smith and Curley Moore - The Second Line
TTITLE6=Fats Domino - The Fat Man [Back in N.O.]
TTITLE7=Johnny Adams - (Oh Why) I Won't Cry
TTITLE8=LLoyd Price - Stagger Lee [Back in N.O.]
TTITLE9=Lee Dorsey - Ya Ya [Back in N.O.]
TTITLE10=Bobby Marchan - Little Chickee Wah Wah
TTITLE11=Champion Jack Dupree - Strollin'
TTITLE12=Dave Bartholomew - Shrimp and Gumbo
TTITLE13=Louis Prima - Medley: Basin Street Blues - When It's Sleepyti
TTITLE13=me Down SOuth [Back in N.O.]
TTITLE14=Kid Ory and His Creole Dixieland Band - Eh, La Bas
TTITLE15=James Booker - Professor Longhair Medley: Bald Head - Tipitin
TTITLE15=a
EXTD=
EXTT0=
EXTT1=
EXTT2=
EXTT3=
EXTT4=
EXTT5=
EXTT6=
EXTT7=
EXTT8=
EXTT9=
EXTT10=
EXTT11=
EXTT12=
EXTT13=
EXTT14=
EXTT15=
PLAYORDER=
